# xmcd
#
# Track frame offsets: 
#        150
#        17365
#        34637
#        52059
#        69095
#        84772
#        108381
#        119310
#        138240
#        152562
#        172431
#        193774
#        217024
#
# Disc length: 3176 seconds
#
# Revision: 1
# Processed by: cddbd v1.5.2PL0 Copyright (c) Steve Scherf et al.
# Submitted via: ExactAudioCopy v0.99pb5
#
DISCID=ab0c660d
DTITLE=Betsy Pecanins - Blues en el alma
DYEAR=2006
DGENRE=Blues
TTITLE0=Fuego en el alma
TTITLE1=Happy home
TTITLE2=Órale pues, Gutiérrez
TTITLE3=I'm tore down
TTITLE4=No me moveré de aquí
TTITLE5=Tonada de la luna
TTITLE6=Am I wrong
TTITLE7=Soy mi voz
TTITLE8=One way out
TTITLE9=Love in vain
TTITLE10=Te puedes ir
TTITLE11=Canción mixteca
TTITLE12=Órale pues, Guitiérrez (remezclado por BOSTICH de NORTEC)
EXTD=
EXTT0=
EXTT1=
EXTT2=
EXTT3=
EXTT4=
EXTT5=
EXTT6=
EXTT7=
EXTT8=
EXTT9=
EXTT10=
EXTT11=
EXTT12=
PLAYORDER=
